<?xml version="1.0" standalone="no"?>
<!DOCTYPE svg PUBLIC "-//W3C//DTD SVG 20010904//EN"
 "http://www.w3.org/TR/2001/REC-SVG-20010904/DTD/svg10.dtd">
<svg version="1.0" xmlns="http://www.w3.org/2000/svg"
 width="16.000000pt" height="16.000000pt" viewBox="0 0 16.000000 16.000000"
 preserveAspectRatio="xMidYMid meet">
<metadata>
Created by potrace 1.11, written by Peter Selinger 2001-2013
</metadata>
<g transform="translate(0.000000,16.000000) scale(0.008000,-0.008000)"
fill="#000000" stroke="none">
<path d="M303 1938 c-100 -153 -149 -297 -201 -593 -11 -60 -27 -137 -35 -170
-26 -101 -32 -242 -14 -316 21 -85 12 -133 -26 -137 l-27 -3 0 -306 0 -305 32
-54 33 -53 361 -1 362 0 12 29 c6 16 21 31 31 34 17 5 19 11 14 44 -13 73 -25
98 -78 153 -72 76 -219 209 -257 233 -36 23 -37 39 -5 160 18 69 18 69 32 40
l13 -28 -5 30 c-3 17 -9 63 -14 103 -5 40 -18 90 -29 111 -24 46 -23 132 2
160 9 10 16 24 16 32 1 21 32 54 68 73 17 9 35 23 40 33 6 10 16 14 27 9 15
-5 16 -14 11 -56 -5 -38 -4 -48 6 -44 20 8 58 73 47 80 -5 3 -7 14 -4 25 4 11
2 19 -4 19 -6 0 -11 5 -11 11 0 5 4 8 9 5 5 -3 14 1 21 9 18 21 48 19 55 -5 5
-16 10 -17 31 -10 13 5 34 19 46 29 23 22 118 46 146 37 10 -4 62 -8 115 -10
l96 -4 60 59 c62 60 77 58 41 -6 -11 -20 -18 -40 -15 -45 6 -9 61 -20 130 -25
28 -2 66 -10 86 -16 l36 -13 -59 -39 c-32 -21 -58 -45 -58 -52 0 -7 -5 -15
-12 -17 -17 -6 0 -28 23 -28 21 0 26 16 7 22 -19 7 1 29 40 45 35 14 37 14 50
-6 8 -12 21 -21 28 -21 8 0 14 -3 14 -6 0 -10 -28 -34 -52 -43 -19 -8 -15 -10
24 -10 39 -1 49 3 59 22 l12 22 13 -30 c8 -18 13 -23 14 -12 0 21 4 21 35 1
15 -10 50 -69 91 -151 58 -117 66 -140 61 -175 -7 -51 3 -115 14 -96 5 7 6 22
4 33 -2 11 -7 103 -10 205 -3 104 -12 216 -20 255 -18 83 -19 124 -4 162 22
56 35 164 28 236 -8 81 -35 160 -52 150 -6 -4 -8 0 -4 10 4 10 1 17 -6 17 -16
0 -47 52 -47 78 0 11 -7 27 -15 36 -8 8 -15 24 -15 34 0 12 -20 38 -46 61
l-47 41 -641 0 -642 0 -41 -62z m1427 -180 c0 -4 -4 -8 -10 -8 -5 0 -10 -5
-10 -11 0 -6 7 -9 15 -5 9 3 15 0 15 -8 0 -8 -9 -12 -23 -11 -18 2 -23 -2 -22
-23 0 -14 -6 -27 -12 -29 -8 -3 -13 4 -13 15 0 11 -5 22 -10 24 -7 2 -7 14 1
37 12 33 12 33 24 11 10 -18 13 -19 18 -7 3 8 3 26 1 39 -5 22 -5 22 10 4 9
-11 16 -23 16 -28z m40 -2 c0 -8 3 -23 6 -33 5 -16 4 -16 -10 1 -18 22 -21 46
-6 46 6 0 10 -6 10 -14z m-130 -20 c0 -8 -5 -27 -11 -43 -10 -26 -11 -27 -24
-10 -13 17 -14 16 -17 -14 l-3 -33 -15 30 c-8 16 -19 32 -25 36 -6 4 -2 13 10
22 18 13 21 13 27 -2 6 -16 7 -15 7 1 1 25 19 21 24 -5 4 -20 4 -19 6 5 1 27
21 39 21 13z m-470 -80 c0 -21 -4 -27 -15 -22 -8 3 -15 1 -15 -5 0 -6 -4 -7
-10 -4 -15 9 -12 39 7 62 21 25 33 14 33 -31z m38 9 c-3 -3 -9 2 -12 12 -6 14
-5 15 5 6 7 -7 10 -15 7 -18z m32 10 c0 -8 -2 -15 -4 -15 -2 0 -6 7 -10 15 -3
8 -1 15 4 15 6 0 10 -7 10 -15z m70 -15 c0 -10 -6 -17 -15 -16 -21 3 -28 13
-22 30 8 21 37 9 37 -14z m-243 -2 c-3 -8 -6 -5 -6 6 -1 11 2 17 5 13 3 -3 4
-12 1 -19z m40 0 c-3 -8 -6 -5 -6 6 -1 11 2 17 5 13 3 -3 4 -12 1 -19z m370
-10 c-3 -7 -5 -2 -5 12 0 14 2 19 5 13 2 -7 2 -19 0 -25z m193 -412 c0 -3 -4
-8 -10 -11 -5 -3 -10 -1 -10 4 0 6 5 11 10 11 6 0 10 -2 10 -4z m-1191 -337
c17 -101 12 -229 -9 -229 -13 0 -21 48 -30 165 -5 70 -4 117 2 129 14 27 24 9
37 -65z m-31 -322 c-4 -40 -20 -39 -32 2 -6 22 -5 35 4 46 12 15 14 15 22 0 5
-8 8 -30 6 -48z"/>
<path d="M1013 1256 c-23 -8 -58 -24 -79 -36 l-37 -23 44 -23 c24 -13 55 -23
68 -24 l24 0 -23 25 c-22 23 -22 25 -4 31 10 3 29 10 42 15 29 12 32 11 32 -2
0 -6 9 -24 21 -41 20 -28 22 -28 40 -12 11 9 22 14 25 11 11 -11 -17 -37 -40
-38 -21 0 -21 -1 2 -11 26 -13 67 4 83 33 13 25 -16 88 -47 99 -34 13 -100 11
-151 -4z"/>
<path d="M764 1062 c-12 -9 -28 -30 -37 -47 -24 -44 -67 -156 -67 -174 0 -28
17 3 40 73 13 39 33 80 46 93 25 25 48 62 42 68 -2 2 -13 -4 -24 -13z"/>
<path d="M1637 913 c-4 -3 -7 -16 -7 -27 0 -12 -19 -55 -42 -96 -100 -183
-122 -227 -128 -257 -5 -18 -5 -33 -1 -33 20 0 111 47 111 58 0 17 62 92 76
92 22 0 44 82 37 140 -7 59 -35 134 -46 123z"/>
<path d="M802 823 c-13 -83 -6 -150 21 -178 19 -20 19 -20 9 0 -16 32 -17 68
-3 103 14 33 9 118 -8 135 -4 4 -13 -23 -19 -60z"/>
<path d="M1056 641 c-11 -17 65 -43 108 -38 21 3 64 1 94 -3 53 -9 135 2 155
20 16 14 -47 21 -98 11 -46 -9 -148 -2 -227 14 -14 4 -29 2 -32 -4z"/>
<path d="M1806 502 c-7 -45 -22 -60 -92 -95 -69 -35 -199 -133 -257 -195 -44
-48 -46 -53 -41 -94 3 -24 2 -60 -4 -81 l-10 -37 299 0 299 0 0 195 c0 182 -1
196 -20 215 -13 13 -33 20 -56 20 -32 0 -35 2 -24 15 11 13 9 20 -10 40 -13
14 -28 25 -33 25 -6 0 -18 7 -27 15 -16 14 -18 13 -24 -23z"/>
<path d="M1096 283 c-4 -42 -4 -123 0 -180 7 -100 7 -103 30 -103 23 0 24 3
24 76 0 71 2 78 30 104 16 15 34 45 39 66 5 22 13 48 16 60 6 19 2 22 -46 28
-29 4 -60 11 -69 16 -15 8 -18 0 -24 -67z"/>
</g>
</svg>
